<svg width="50" height="48" viewBox="0 0 50 48" fill="none" xmlns="http://www.w3.org/2000/svg">
<path d="M22.0703 24H23.5352V22.5352C23.5352 21.7268 22.8786 21.0703 22.0703 21.0703C21.262 21.0703 20.6055 21.7268 20.6055 22.5352C20.6055 23.3435 21.262 24 22.0703 24Z" fill="white"/>
<path d="M23.5352 26.9297C23.2403 26.9297 18.8457 26.9297 19.1406 26.9297C18.3323 26.9297 17.6758 27.5862 17.6758 28.3945V29.8594H23.5352V26.9297Z" fill="white"/>
<path d="M29.3945 22.5352C29.3945 21.7268 28.738 21.0703 27.9297 21.0703C27.1214 21.0703 26.4648 21.7268 26.4648 22.5352V24H27.9297C28.738 24 29.3945 23.3435 29.3945 22.5352Z" fill="white"/>
<path d="M23.5352 32.7891H20.6055V38.6484H29.3945V32.7891H26.4648V34.2539C26.4648 35.0634 25.8095 35.7188 25 35.7188C24.1905 35.7188 23.5352 35.0634 23.5352 34.2539V32.7891Z" fill="white"/>
<path d="M0 43.043C0 45.4661 1.97144 47.4375 4.39453 47.4375H45.6055C48.0286 47.4375 50 45.4661 50 43.043V15.2109H0V43.043ZM14.7461 28.3945C14.7461 26.3689 16.1308 24.676 17.9985 24.1694C17.7944 23.6632 17.6758 23.1135 17.6758 22.5352C17.6758 20.1121 19.6472 18.1406 22.0703 18.1406C23.1998 18.1406 24.2207 18.5808 25 19.2835C25.7793 18.5808 26.8002 18.1406 27.9297 18.1406C30.3528 18.1406 32.3242 20.1121 32.3242 22.5352C32.3242 23.1135 32.2056 23.6632 32.0015 24.1694C33.8692 24.676 35.2539 26.3689 35.2539 28.3945V31.3242C35.2539 32.1337 34.5985 32.7891 33.7891 32.7891H32.3242V40.1133C32.3242 40.9228 31.6689 41.5781 30.8594 41.5781H19.1406C18.3311 41.5781 17.6758 40.9228 17.6758 40.1133V32.7891H16.2109C15.4015 32.7891 14.7461 32.1337 14.7461 31.3242V28.3945Z" fill="white"/>
<path d="M32.3243 28.3945C32.3243 27.5862 31.6677 26.9297 30.8594 26.9297C30.5645 26.9297 26.17 26.9297 26.4649 26.9297V29.8594H32.3243V28.3945Z" fill="white"/>
<path d="M45.6055 0.5625H4.39453C1.97144 0.5625 0 2.53394 0 4.95703V12.2812H50V4.95703C50 2.53394 48.0286 0.5625 45.6055 0.5625ZM7.32155 9.35156C6.51245 9.35156 5.8567 8.69582 5.8567 7.88672C5.8567 7.07762 6.51245 6.42188 7.32155 6.42188C8.13065 6.42188 8.78639 7.07762 8.78639 7.88672C8.78639 8.69582 8.13065 9.35156 7.32155 9.35156ZM13.2786 9.35156C12.4695 9.35156 11.8137 8.69582 11.8137 7.88672C11.8137 7.07762 12.4695 6.42188 13.2786 6.42188C14.0877 6.42188 14.7434 7.07762 14.7434 7.88672C14.7434 8.69582 14.0877 9.35156 13.2786 9.35156ZM19.138 9.35156C18.3289 9.35156 17.6731 8.69582 17.6731 7.88672C17.6731 7.07762 18.3289 6.42188 19.138 6.42188C19.9471 6.42188 20.6028 7.07762 20.6028 7.88672C20.6028 8.69582 19.9471 9.35156 19.138 9.35156ZM42.6758 9.35156H33.7891C32.9796 9.35156 32.3242 8.6962 32.3242 7.88672C32.3242 7.07724 32.9796 6.42188 33.7891 6.42188H42.6758C43.4853 6.42188 44.1406 7.07724 44.1406 7.88672C44.1406 8.6962 43.4853 9.35156 42.6758 9.35156Z" fill="white"/>
</svg>
