<svg width="50" height="30" viewBox="0 0 50 30" fill="none" xmlns="http://www.w3.org/2000/svg">
<g id="Group">
<g id="Group_2">
<path id="Vector" d="M48.5352 0H42.5781C41.7685 0 41.1133 0.655176 41.1133 1.46484V2.92969H29.1247C28.518 1.22832 26.9072 0 25 0C23.0928 0 21.482 1.22832 20.8753 2.92969H8.88672V1.46484C8.88672 0.655176 8.23154 0 7.42188 0H1.46484C0.655176 0 0 0.655176 0 1.46484V7.32422C0 8.13389 0.655176 8.78906 1.46484 8.78906H7.42188C8.23154 8.78906 8.88672 8.13389 8.88672 7.32422V5.83984H14.9027C9.81904 9.01572 6.46699 14.5937 6.06631 20.8413C4.30869 21.4166 3.02734 23.0527 3.02734 25C3.02734 27.4232 4.99863 29.3945 7.42188 29.3945C9.84512 29.3945 11.8164 27.4232 11.8164 25C11.8164 23.1309 10.6386 21.5417 8.99023 20.9075C9.49004 13.9422 14.3502 8.07148 21.1106 6.39648C21.8418 7.81025 23.3015 8.78906 25 8.78906C26.6985 8.78906 28.1582 7.81025 28.8894 6.39648C35.6498 8.07139 40.51 13.9421 41.0098 20.9074C39.3614 21.5417 38.1836 23.1309 38.1836 25C38.1836 27.4232 40.1549 29.3945 42.5781 29.3945C45.0014 29.3945 46.9727 27.4232 46.9727 25C46.9727 23.0527 45.6913 21.4166 43.9337 20.8413C43.533 14.5937 40.181 9.03525 35.0973 5.85938H41.1133V7.32422C41.1133 8.13389 41.7685 8.78906 42.5781 8.78906H48.5352C49.3448 8.78906 50 8.13389 50 7.32422V1.46484C50 0.655176 49.3448 0 48.5352 0Z" fill="white"/>
</g>
</g>
</svg>
