<svg width="42" height="50" viewBox="0 0 42 50" fill="none" xmlns="http://www.w3.org/2000/svg">
<path d="M11.3751 22.2756C13.6647 27.3285 18.5668 29.528 20.9999 29.528C22.5998 29.528 25.267 28.5763 27.5572 26.4887C26.7198 26.5471 25.8248 26.5767 24.8684 26.5767C24.644 26.5767 24.4085 26.5747 24.1569 26.5707C23.6748 26.942 23.0776 27.1514 22.4578 27.1514H20.42C18.8843 27.1514 17.635 25.9021 17.635 24.3664C17.635 22.8307 18.8843 21.5813 20.42 21.5813H22.4578C23.194 21.5813 23.8825 21.8683 24.3932 22.3632C24.5628 22.3651 24.7301 22.3659 24.8942 22.3659C27.5249 22.3659 29.2585 22.1246 30.3926 21.8336C30.2455 21.4756 30.1653 21.084 30.1653 20.6751V13.6137C30.1653 12.8792 30.438 12.1751 30.9094 11.6311C30.6578 9.67275 30.2012 8.17767 29.5198 7.0748C28.1156 4.80209 25.4083 3.74365 20.9999 3.74365C17.3429 3.74365 14.8175 4.50281 13.2796 6.06445C12.0875 7.27505 11.3967 9.00244 11.0737 11.6113C11.5557 12.1573 11.8345 12.8686 11.8345 13.6137V20.6751C11.8347 21.2626 11.6658 21.8109 11.3751 22.2756Z" fill="white"/>
<path d="M6.36459 22.3422H8.80916C9.72944 22.3422 10.4761 21.5958 10.4761 20.6751V13.6138C10.4761 12.9987 10.142 12.4627 9.64643 12.1739C10.1923 6.39182 12.4236 2.38506 21.0001 2.38506C25.9252 2.38506 28.9997 3.64851 30.6756 6.36084C31.6508 7.9392 32.1199 9.97783 32.339 12.1826C31.8513 12.4735 31.5239 13.0047 31.5239 13.6137V20.675C31.5239 21.4688 32.0793 22.1316 32.8222 22.2997C31.7446 23.0045 29.5136 23.7244 24.8942 23.7244C24.52 23.7244 24.13 23.7196 23.7238 23.7099C23.4861 23.2527 23.0089 22.9398 22.4579 22.9398H20.4202C19.6325 22.9398 18.9938 23.5785 18.9938 24.3663C18.9938 25.1541 19.6325 25.7928 20.4202 25.7928H22.4579C22.9339 25.7928 23.3545 25.5587 23.6135 25.2005C24.0425 25.2113 24.4626 25.2181 24.8685 25.2181C30.0755 25.218 33.3856 24.3292 34.7262 22.5658C34.7833 22.4908 34.8353 22.4161 34.8828 22.3422H35.6358C36.5562 22.3422 37.3027 21.5958 37.3027 20.6751V13.6138C37.3027 12.6933 36.5563 11.9469 35.6358 11.9469H34.7163C34.4577 9.28307 33.8842 7.01539 32.7047 5.1069C30.5816 1.67047 26.7527 0 20.9999 0C15.2468 0 11.4182 1.67047 9.29497 5.10704C8.11562 7.01552 7.54245 9.28293 7.28365 11.947H6.36446C5.44377 11.947 4.69739 12.6933 4.69739 13.614V20.6753C4.69739 21.5958 5.44391 22.3422 6.36459 22.3422Z" fill="white"/>
<path d="M41.1537 43.1066C40.5994 39.6604 39.4583 35.2212 37.1699 33.6439C35.6095 32.5678 30.1617 29.6571 27.8355 28.4143L27.7865 28.3883C27.5203 28.246 27.1954 28.2746 26.9581 28.4608C25.7377 29.4187 24.4017 30.064 22.9874 30.3788C22.7374 30.4344 22.5321 30.6122 22.4412 30.8516L20.9999 34.6502L19.5587 30.8516C19.4678 30.6121 19.2625 30.4344 19.0125 30.3788C17.5981 30.064 16.2619 29.4187 15.0414 28.4608C14.8042 28.2744 14.4792 28.2459 14.2131 28.3883C11.9128 29.6172 6.3945 32.589 4.83652 33.6393C2.20108 35.4148 1.05013 41.8373 0.846209 43.1067C0.825966 43.2327 0.83765 43.3615 0.880172 43.4816C0.974455 43.7478 3.39185 50.0003 20.9998 50.0003C38.6075 50.0003 41.0252 43.7478 41.1196 43.4817C41.1622 43.3613 41.1739 43.2324 41.1537 43.1066ZM32.9551 39.1492H25.9812V37.6804H32.9551V39.1492Z" fill="white"/>
</svg>
