<svg width="24" height="24" viewBox="0 0 24 24" fill="none" xmlns="http://www.w3.org/2000/svg">
<path d="M3.60693 12.9996H9.18417V10.9996H3.60693V1.84562C3.60695 1.75873 3.62801 1.67335 3.66804 1.59789C3.70806 1.52242 3.76568 1.45949 3.83521 1.41527C3.90473 1.37106 3.98377 1.34711 4.06452 1.34576C4.14527 1.34442 4.22496 1.36574 4.29572 1.40762L21.4569 11.5616C21.5297 11.6048 21.5905 11.6682 21.6328 11.7452C21.6752 11.8223 21.6975 11.9101 21.6975 11.9996C21.6975 12.0891 21.6752 12.177 21.6328 12.254C21.5905 12.331 21.5297 12.3945 21.4569 12.4376L4.29572 22.5916C4.22496 22.6335 4.14527 22.6548 4.06452 22.6535C3.98377 22.6521 3.90473 22.6282 3.83521 22.584C3.76568 22.5398 3.70806 22.4768 3.66804 22.4013C3.62801 22.3259 3.60695 22.2405 3.60693 22.1536V12.9996Z" fill="white"/>
</svg>
